. 
  
http://www.torrentday.com/        :     The Hottest Private Tracker On The Net!!!


               www . TorrentDay . Com 
(((((((((((((= Enjoy No RAR releases =))))))))))))))))))))


...................................NFO:....................................

.      *********** ****    ****      ***      ******** *********** ****    *** **********
           *+*     +*+*+* *+*+*+   *+* *+*   *+*    *+*    *+*     *+*+*   *+* *+*        
           +*+     +*+ +*+*+ +*+  +*+   +*+  +*+           +*+     *+*+*+  +*+ +*+        
           +$+     +$+  +*+  +$+ +$++*++$++* *$*           +$+     +$+ +*+ +$+ +$++*++$  
           +$+     +$+       +$+ +$+     +$+ +$+   +$+$    +$+     +$+  +$+$+$ +$+        
           $+$     $+$       $+$ $+$     $+$ $+$    $+$    $+$     $+$   $+$+$ $+$        
       $$$$$$$$$$$ $$$       $$$ $$$     $$$  $$$$$$$$ $$$$$$$$$$$ $$$    $$$$ $$$$$$$$$$     
                                                



                           Another Fine Release Brought to you from - IMAGiNE                   
                                                 

********************************************************************************************************************                                
                                Sex Pot R5 AC3 XViD - IMAGiNE
********************************************************************************************************************

Ripper ...........:IMAGiNE                                      IMDB Rating.......:3.0/10                             
Video Codec.......:XViD                                         Release Date......:07/23/10
Audio Codec.......:AC3                                          Theatre Date......:08/18/09
Audio Bitrate.....:192                                          Runtime...........:1h 31mn
Subtitles.........:NIL                                          Language..........:ENGLISH
Resolution........:720 x 400                                    IMDb URL..........:http://www.imdb.com/title/tt1473801/


[color=yellow]DETAILS:[/color]

Video
Format                           : MPEG-4 Visual
Format profile                   : Streaming Video@L1
Format settings, BVOP            : Yes
Format settings, QPel            : No
Format settings, GMC             : No warppoints
Format settings, Matrix          : Default
Muxing mode                      : Packed bitstream
Codec ID                         : XVID
Codec ID/Hint                    : XviD
Duration                         : 1h 31mn
Bit rate                         : 1 945 Kbps
Width                            : 720 pixels
Height                           : 400 pixels
Display aspect ratio             : 16/9
Frame rate                       : 25.000 fps
Resolution                       : 24 bits
Colorimetry                      : 4:2:0
Scan type                        : Progressive
Bits/(Pixel*Frame)               : 0.270
Stream size                      : 1.25 GiB (91%)
Writing library                  : XviD 50

Audio
Format                           : AC-3
Format/Info                      : Audio Coding 3
Codec ID                         : 2000
Duration                         : 1h 31mn
Bit rate mode                    : Constant
Bit rate                         : 192 Kbps
Channel(s)                       : 2 channels
Channel positions                : L R
Sampling rate                    : 48.0 KHz
Stream size                      : 126 MiB (9%)
Alignment                        : Aligned on interleaves
Interleave, duration             : 40 ms (1.00 video frame)
Interleave, preload duration     : 512 ms



[color=yellow]NOTES:[/color]

IMAGiNE bringing you another release..... Sex Pot 2009

Thanks go out to ELEKTRI4KA for the files... :)
Here we go with an R5 DVDRip of Sex Pot. We noticed there had not 
been a rip of this yet and thought some might want one. 
Work done was we balanced the white then on to the colors which there
was to much yellow so we lowered that. Also we had to crop and resize 
as well as adjust to contrast, brightness and applied a sharpening filter.
Audio is AC3 audio from the R5 DVD so nice and crisp...

Enjoy :)


[color=yellow]SCREENS:[/color]



[color=yellow]GREETS:[/color]

FLAWL3SS,ViSiON,FUSiON,Rx,SecretMyth,BirdFlu,ELEKTRI4KA and Autotron
And to all the other p2p grps past and present 

Special thanks to Python-Lair for the server :)
And special thanks to supreme-speeds for the ripbox :)
Also to The Scene Nation for all their help :)
Thanks to TrackerAccess.org for the help as well :)

[COLOR=RED]Looking for these,syncers,cammers,silver supplier.....Have anything to offer????......
Contact us imaginegroup@hushmail.com[/COLOR]